<svg xmlns="http://www.w3.org/2000/svg" xmlns:xlink="http://www.w3.org/1999/xlink" width="24" zoomAndPan="magnify" viewBox="0 0 768 767.999994" height="24" preserveAspectRatio="xMidYMid meet" version="1.0">
															<path fill="#3ab54a" d="M 703.085938 384 C 703.085938 559.945312 559.945312 703.085938 384 703.085938 C 208.054688 703.085938 64.914062 559.945312 64.914062 384 C 64.914062 208.054688 208.054688 64.910156 384 64.910156 C 559.945312 64.910156 703.085938 208.054688 703.085938 384 Z M 655.503906 112.488281 C 582.984375 39.96875 486.5625 0.0273438 384 0.0273438 C 281.4375 0.0273438 185.015625 39.96875 112.496094 112.488281 C 39.96875 185.015625 0.0273438 281.4375 0.0273438 384 C 0.0273438 486.5625 39.96875 582.984375 112.496094 655.511719 C 185.015625 728.03125 281.4375 767.972656 384 767.972656 C 486.5625 767.972656 582.984375 728.03125 655.503906 655.511719 C 728.03125 582.984375 767.972656 486.5625 767.972656 384 C 767.972656 281.4375 728.03125 185.015625 655.503906 112.488281 " fill-opacity="1" fill-rule="nonzero"/>
															<path fill="#3ab54a" d="M 554.300781 239.21875 L 343.769531 449.746094 L 256.269531 362.25 L 197.003906 421.523438 L 343.769531 568.292969 L 613.574219 298.492188 L 554.300781 239.21875 " fill-opacity="1" fill-rule="nonzero"/>
														</svg>