<svg xmlns="http://www.w3.org/2000/svg" xmlns:xlink="http://www.w3.org/1999/xlink" width="24" zoomAndPan="magnify" viewBox="0 0 768 767.999994" height="24" preserveAspectRatio="xMidYMid meet" version="1.0"><defs><clipPath id="161897e31e"><path d="M 76.800781 76.800781 L 691.050781 76.800781 L 691.050781 691.050781 L 76.800781 691.050781 Z M 76.800781 76.800781 " clip-rule="nonzero"/></clipPath></defs><path fill="#f6f6f6" d="M 384 0 C 171.839844 0 0 171.839844 0 384 C 0 596.160156 171.839844 768 384 768 C 596.160156 768 768 596.160156 768 384 C 768 171.839844 596.160156 0 384 0 Z M 384 691.199219 C 214.273438 691.199219 76.800781 553.726562 76.800781 384 C 76.800781 214.273438 214.273438 76.800781 384 76.800781 C 553.726562 76.800781 691.199219 214.273438 691.199219 384 C 691.199219 553.726562 553.726562 691.199219 384 691.199219 Z M 384 691.199219 " fill-opacity="1" fill-rule="nonzero"/><g clip-path="url(#161897e31e)"><path fill="#004aad" d="M 383.996094 691.191406 C 214.28125 691.191406 76.800781 552.761719 76.800781 383.996094 C 76.800781 215.226562 214.28125 76.800781 383.996094 76.800781 C 553.710938 76.800781 691.191406 214.277344 691.191406 383.996094 C 691.191406 553.710938 552.761719 691.191406 383.996094 691.191406 Z M 383.996094 95.761719 C 224.707031 95.761719 95.761719 224.707031 95.761719 383.996094 C 95.761719 543.28125 224.707031 672.226562 383.996094 672.226562 C 543.28125 672.226562 672.226562 543.28125 672.226562 383.996094 C 672.226562 224.707031 542.332031 95.761719 383.996094 95.761719 Z M 383.996094 95.761719 " fill-opacity="1" fill-rule="nonzero"/></g></svg>