<svg xmlns="http://www.w3.org/2000/svg" xmlns:xlink="http://www.w3.org/1999/xlink" width="24" zoomAndPan="magnify" viewBox="0 0 768 767.999994" height="24" preserveAspectRatio="xMidYMid meet" version="1.0">
																<path fill="#d50000" d="M 108.101562 605.996094 L 607.707031 106.375 L 662.011719 160.679688 L 162.410156 660.300781 Z M 108.101562 605.996094 " fill-opacity="1" fill-rule="nonzero"/>
																<path fill="#d50000" d="M 384 0 C 172.800781 0 0 172.800781 0 384 C 0 595.199219 172.800781 768 384 768 C 595.199219 768 768 595.199219 768 384 C 768 172.800781 595.199219 0 384 0 Z M 384 691.199219 C 215.039062 691.199219 76.800781 552.960938 76.800781 384 C 76.800781 215.039062 215.039062 76.800781 384 76.800781 C 552.960938 76.800781 691.199219 215.039062 691.199219 384 C 691.199219 552.960938 552.960938 691.199219 384 691.199219 Z M 384 691.199219 " fill-opacity="1" fill-rule="nonzero"/>
															</svg>